<svg xmlns="http://www.w3.org/2000/svg" xmlns:xlink="http://www.w3.org/1999/xlink" version="1.1" x="0px" y="0px" viewBox="0 0 100 125" enable-background="new 0 0 100 100" xml:space="preserve"><g><path fill="#000000" d="M65,64.8H35c-5,0-9-4-9-9s4-9,9-9c0.2,0,0.3,0,0.5,0C37,40.1,43,35.2,50,35.2s13,4.9,14.5,11.7   c0.2,0,0.4,0,0.5,0c5,0,9,4,9,9S70,64.8,65,64.8z M35,48.9c-3.8,0-6.9,3.1-6.9,6.9s3.1,6.9,6.9,6.9h30c3.8,0,6.9-3.1,6.9-6.9   s-3.1-6.9-6.9-6.9c-0.4,0-0.8,0-1.2,0.1c-0.3,0-0.6,0-0.8-0.2c-0.2-0.2-0.4-0.4-0.4-0.7c-0.9-6.2-6.3-10.9-12.6-10.9   s-11.7,4.7-12.6,10.9c0,0.3-0.2,0.5-0.4,0.7c-0.2,0.2-0.5,0.2-0.8,0.2C35.7,48.9,35.4,48.9,35,48.9z"/></g></svg>
