<svg xmlns="http://www.w3.org/2000/svg" xmlns:xlink="http://www.w3.org/1999/xlink" version="1.1" x="0px" y="0px" viewBox="0 0 100 125" enable-background="new 0 0 100 100" xml:space="preserve">
  <style type="text/css">
    <![CDATA[
    @keyframes translateRight {
      0% {
        transform: translate(10px, -10px);
        opacity: .5;
      }
      100% {
        transform: translate(-15px, -15px);
        opacity: .4;
      }
    }
    @keyframes translateLeft {
      0% {
        transform: translate(-10px, -5px);
        opacity: .8;
      }
      100% {
        transform: translate(10px, -10px);
        opacity: .2;
      }
    }
    @keyframes translateDown {
      0% {
        transform: translateY(-3px);
        opacity: .4
      }
      100% {
        transform: translateY(3px);
        opacity: 1;
      }
    }
    #cloudThird {
      animation: translateRight 8s ease-in-out infinite alternate;
      fill: gray;
    }
    #cloudSecond {
      animation: translateLeft 6s ease-in-out infinite alternate;
      fill: gray;
    }
    #cloudFirst {
      animation: translateDown 4s ease-in-out infinite alternate;
      fill: gray;
    }
    ]]>
  </style>
<path id="cloudThird" fill="#000000" d="M65,64.8H35c-5,0-9-4-9-9s4-9,9-9c0.2,0,0.3,0,0.5,0C37,40.1,43,35.2,50,35.2s13,4.9,14.5,11.7   c0.2,0,0.4,0,0.5,0c5,0,9,4,9,9S70,64.8,65,64.8z" />
<path id="cloudSecond" fill="#000000" d="M65,64.8H35c-5,0-9-4-9-9s4-9,9-9c0.2,0,0.3,0,0.5,0C37,40.1,43,35.2,50,35.2s13,4.9,14.5,11.7   c0.2,0,0.4,0,0.5,0c5,0,9,4,9,9S70,64.8,65,64.8z" />
<path id="cloudFirst" fill="#000000" d="M65,64.8H35c-5,0-9-4-9-9s4-9,9-9c0.2,0,0.3,0,0.5,0C37,40.1,43,35.2,50,35.2s13,4.9,14.5,11.7   c0.2,0,0.4,0,0.5,0c5,0,9,4,9,9S70,64.8,65,64.8z" />
</svg>
