<svg xmlns="http://www.w3.org/2000/svg" xmlns:xlink="http://www.w3.org/1999/xlink" version="1.1" x="0px" y="0px" viewBox="0 0 100 125" enable-background="new 0 0 100 100" xml:space="preserve">
  <style type="text/css">
    <![CDATA[
    @keyframes translateRight {
      100% {
        transform: translate(3px, -3px);
      }
    }
    @keyframes translateUp {
      100% {
        transform: translate(3px, -3px);
      }
    }
    .ray-right{
      animation: translateRight 1s ease-in-out infinite alternate;
    }
    .ray-up {
      animation: translateUp 1s ease-in-out infinite alternate;
    }
    .circle {
      animation: translateUp 2s ease-out infinite alternate;
    }
    ]]>
  </style>
<path fill="#000000" d="M57.4,73.5h-30c-5,0-9-4-9-9s4-9,9-9c0.2,0,0.3,0,0.5,0c1.5-6.7,7.5-11.7,14.5-11.7s13,4.9,14.5,11.7   c0.2,0,0.4,0,0.5,0c5,0,9,4,9,9S62.4,73.5,57.4,73.5z M27.4,57.6c-3.8,0-6.9,3.1-6.9,6.9s3.1,6.9,6.9,6.9h30c3.8,0,6.9-3.1,6.9-6.9   s-3.1-6.9-6.9-6.9c-0.4,0-0.8,0-1.2,0.1c-0.3,0-0.6,0-0.8-0.2c-0.2-0.2-0.4-0.4-0.4-0.7c-0.9-6.2-6.3-10.9-12.6-10.9   s-11.7,4.7-12.6,10.9c0,0.3-0.2,0.5-0.4,0.7s-0.5,0.2-0.8,0.2C28.2,57.6,27.8,57.6,27.4,57.6z"/>
<path class="circle" fill="#000000" d="M67.1,58.7c-0.2,0-0.4-0.1-0.6-0.2c-0.5-0.3-0.5-1-0.2-1.5c0.5-0.7,0.9-1.4,1.3-2.1   c1.2-2.6,1.3-5.6,0.3-8.3s-3-4.9-5.7-6c-4.1-1.9-9-0.9-12.2,2.3c-0.4,0.4-1.1,0.4-1.5,0c-0.4-0.4-0.4-1.1,0-1.5   c3.8-3.9,9.6-5,14.6-2.7c3.1,1.4,5.5,4,6.8,7.2s1.1,6.7-0.3,9.9c-0.4,0.9-0.9,1.8-1.5,2.5C67.8,58.5,67.5,58.7,67.1,58.7z"/>
<path class="ray-right" fill="#000000" d="M80,61.5c-0.1,0-0.3,0-0.4-0.1l-5.9-2.7c-0.5-0.2-0.8-0.9-0.5-1.4c0.2-0.5,0.9-0.8,1.4-0.5l5.9,2.7   c0.5,0.2,0.8,0.9,0.5,1.4C80.8,61.3,80.4,61.5,80,61.5z"/>
<path class="ray-up" fill="#000000" d="M65.1,35.1c-0.1,0-0.3,0-0.4-0.1c-0.5-0.2-0.8-0.9-0.5-1.4l2.7-5.9c0.2-0.5,0.9-0.8,1.4-0.5   c0.5,0.2,0.8,0.9,0.5,1.4l-2.7,5.9C65.9,34.8,65.5,35.1,65.1,35.1z"/>
<path class="ray-right" fill="#000000" d="M74.5,45.1c-0.4,0-0.8-0.3-1-0.7c-0.2-0.5,0.1-1.1,0.6-1.3l6-2.3c0.5-0.2,1.1,0.1,1.3,0.6   c0.2,0.5-0.1,1.1-0.6,1.3l-6,2.3C74.8,45.1,74.7,45.1,74.5,45.1z"/>
<path class="ray-up" fill="#000000" d="M51.4,34.6c-0.4,0-0.8-0.3-1-0.7l-2.3-6c-0.2-0.5,0.1-1.1,0.6-1.3c0.5-0.2,1.1,0.1,1.3,0.6l2.3,6   c0.2,0.5-0.1,1.1-0.6,1.3C51.6,34.6,51.5,34.6,51.4,34.6z"/>
</svg>
