<svg xmlns="http://www.w3.org/2000/svg" xmlns:xlink="http://www.w3.org/1999/xlink" version="1.1" x="0px" y="0px" viewBox="0 0 100 125" enable-background="new 0 0 100 100" xml:space="preserve">
  <style type="text/css">
    <![CDATA[

    @keyframes rain {
      0% {
        transform: translate(1px, 1px);
      }
      25% {
        transform: translate(-1px, 2px)
      }
      50% {
        transform: translate(-2px, 2px);
      }
      75% {
        transform: translate(2px, -2px)
        opacity: .5;
      }
      100% {
        transform: translate(3px, -1px);
        opacity: 0;
      }
    }

    .rain-drop{
      animation: rain 1s ease-in-out infinite;
    }
    .rain-drop-alt{
      animation: rain 1.2s ease-in-out infinite;
    }
    .rain-drop-ind{
      animation: rain 1.5s ease-in-out infinite;
    }
    ]]>
  </style>

<path class="rain-drop" fill="#000000" d="M42,76.1c-0.1,0-0.3,0-0.4-0.1c-0.5-0.2-0.8-0.8-0.6-1.4l1.5-3.7c0.2-0.5,0.8-0.8,1.4-0.6   c0.5,0.2,0.8,0.8,0.6,1.4L43,75.4C42.8,75.8,42.4,76.1,42,76.1z"/>
<path class="rain-drop-alt" fill="#000000" d="M45.3,68.1c-0.1,0-0.3,0-0.4-0.1c-0.5-0.2-0.8-0.8-0.6-1.4l4-9.7c0.2-0.5,0.8-0.8,1.4-0.6   c0.5,0.2,0.8,0.8,0.6,1.4l-4,9.7C46.1,67.8,45.7,68.1,45.3,68.1z"/>
<path class="rain-drop-alt" fill="#000000" d="M56.2,74.1c-0.1,0-0.3,0-0.4-0.1c-0.5-0.2-0.8-0.8-0.6-1.4l2.3-5.5c0.2-0.5,0.8-0.8,1.4-0.6   c0.5,0.2,0.8,0.8,0.6,1.4l-2.3,5.5C57,73.9,56.6,74.1,56.2,74.1z"/>
<path class="rain-drop-ind" fill="#000000" d="M60.2,64.6c-0.1,0-0.3,0-0.4-0.1c-0.5-0.2-0.8-0.8-0.6-1.4l2.6-6.2c0.2-0.5,0.8-0.8,1.4-0.6   c0.5,0.2,0.8,0.8,0.6,1.4l-2.6,6.2C61,64.3,60.6,64.6,60.2,64.6z"/>
<path class="rain-drop-ind" fill="#000000" d="M30.9,70.5c-0.1,0-0.3,0-0.4-0.1c-0.5-0.2-0.8-0.8-0.6-1.4l2.4-5.8c0.2-0.5,0.8-0.8,1.4-0.6   c0.5,0.2,0.8,0.8,0.6,1.4l-2.4,5.8C31.7,70.3,31.3,70.5,30.9,70.5z"/>
<path class="rain-drop" fill="#000000" d="M35.1,60.3c-0.1,0-0.3,0-0.4-0.1c-0.5-0.2-0.8-0.8-0.6-1.4l0.8-1.9c0.2-0.5,0.8-0.8,1.4-0.6   c0.5,0.2,0.8,0.8,0.6,1.4l-0.8,1.9C35.9,60,35.5,60.3,35.1,60.3z"/>
<path fill="#000000" d="M65,53.6H35c-5,0-9-4-9-9s4-9,9-9c0.2,0,0.3,0,0.5,0C37,28.9,43,23.9,50,23.9s13,4.9,14.5,11.7   c0.2,0,0.4,0,0.5,0c5,0,9,4,9,9S70,53.6,65,53.6z M35,37.7c-3.8,0-6.9,3.1-6.9,6.9s3.1,6.9,6.9,6.9h30c3.8,0,6.9-3.1,6.9-6.9   s-3.1-6.9-6.9-6.9c-0.4,0-0.8,0-1.2,0.1c-0.3,0-0.6,0-0.8-0.2c-0.2-0.2-0.4-0.4-0.4-0.7C61.7,30.7,56.3,26,50,26   s-11.7,4.7-12.6,10.9c0,0.3-0.2,0.5-0.4,0.7c-0.2,0.2-0.5,0.2-0.8,0.2C35.7,37.7,35.4,37.7,35,37.7z"/>
</svg>
