<svg xmlns="http://www.w3.org/2000/svg" xmlns:xlink="http://www.w3.org/1999/xlink" version="1.1" x="0px" y="0px" viewBox="0 0 100 125" enable-background="new 0 0 100 100" xml:space="preserve"><path fill="#000000" d="M70.7,49.4h-4l2.6-1.7c0.5-0.3,0.6-1,0.3-1.4c-0.3-0.5-1-0.6-1.4-0.3l-5.4,3.4H52.5l7.2-7.2l6.2-1.4  c0.6-0.1,0.9-0.7,0.8-1.2c-0.1-0.6-0.7-0.9-1.2-0.8l-3,0.7l2.8-2.8c0.4-0.4,0.4-1.1,0-1.5c-0.4-0.4-1.1-0.4-1.5,0L61,38l0.7-3  c0.1-0.6-0.2-1.1-0.8-1.2c-0.6-0.1-1.1,0.2-1.2,0.8l-1.4,6.2L51,48V37.7l3.4-5.4c0.3-0.5,0.2-1.1-0.3-1.4c-0.5-0.3-1.1-0.2-1.4,0.3  L51,33.8v-4c0-0.6-0.5-1-1-1s-1,0.5-1,1v4l-1.7-2.6c-0.3-0.5-1-0.6-1.4-0.3c-0.5,0.3-0.6,1-0.3,1.4l3.4,5.4V48l-7.2-7.2l-1.4-6.2  c-0.1-0.6-0.7-0.9-1.2-0.8c-0.6,0.1-0.9,0.7-0.8,1.2l0.7,3l-2.8-2.8c-0.4-0.4-1.1-0.4-1.5,0c-0.4,0.4-0.4,1.1,0,1.5l2.8,2.8l-3-0.7  c-0.6-0.1-1.1,0.2-1.2,0.8c-0.1,0.6,0.2,1.1,0.8,1.2l6.2,1.4l7.2,7.2H37.2L31.9,46c-0.5-0.3-1.1-0.2-1.4,0.3  c-0.3,0.5-0.2,1.1,0.3,1.4l2.6,1.7h-4c-0.6,0-1,0.5-1,1s0.5,1,1,1h4l-2.6,1.7c-0.5,0.3-0.6,1-0.3,1.4c0.2,0.3,0.5,0.5,0.9,0.5  c0.2,0,0.4-0.1,0.6-0.2l5.4-3.4h10.2l-7.2,7.2L34,60.1c-0.6,0.1-0.9,0.7-0.8,1.2c0.1,0.5,0.5,0.8,1,0.8c0.1,0,0.2,0,0.2,0l3-0.7  l-2.8,2.8c-0.4,0.4-0.4,1.1,0,1.5c0.2,0.2,0.5,0.3,0.7,0.3s0.5-0.1,0.7-0.3L39,63l-0.7,3c-0.1,0.6,0.2,1.1,0.8,1.2  c0.1,0,0.2,0,0.2,0c0.5,0,0.9-0.3,1-0.8l1.4-6.2L49,53v10.2l-3.4,5.4c-0.3,0.5-0.2,1.1,0.3,1.4c0.2,0.1,0.4,0.2,0.6,0.2  c0.3,0,0.7-0.2,0.9-0.5l1.7-2.6v4c0,0.6,0.5,1,1,1s1-0.5,1-1v-4l1.7,2.6c0.2,0.3,0.5,0.5,0.9,0.5c0.2,0,0.4-0.1,0.6-0.2  c0.5-0.3,0.6-1,0.3-1.4L51,63.2V53l7.2,7.2l1.4,6.2c0.1,0.5,0.5,0.8,1,0.8c0.1,0,0.2,0,0.2,0c0.6-0.1,0.9-0.7,0.8-1.2L61,63l2.8,2.8  c0.2,0.2,0.5,0.3,0.7,0.3s0.5-0.1,0.7-0.3c0.4-0.4,0.4-1.1,0-1.5l-2.8-2.8l3,0.7c0.1,0,0.2,0,0.2,0c0.5,0,0.9-0.3,1-0.8  c0.1-0.6-0.2-1.1-0.8-1.2l-6.2-1.4l-7.2-7.2h10.2l5.4,3.4c0.2,0.1,0.4,0.2,0.6,0.2c0.3,0,0.7-0.2,0.9-0.5c0.3-0.5,0.2-1.1-0.3-1.4  l-2.6-1.7h4c0.6,0,1-0.5,1-1S71.2,49.4,70.7,49.4z"/></svg>
