<svg xmlns="http://www.w3.org/2000/svg" xmlns:xlink="http://www.w3.org/1999/xlink" version="1.1" x="0px" y="0px" viewBox="0 0 100 125" enable-background="new 0 0 100 100" xml:space="preserve">
  <style type="text/css">
    <![CDATA[
    @keyframes translateRight {
      0% {
        transform: translateX(1px);
        fill: #FF8C00;
        opacity: .1;
      }
      50% {
        transform: translateX(2px);
        fill: #FF8C00;
        opacity: .5;
      }
      100% {
        transform: translateX(3px);
        fill: #FF8C00;
      }
    }
    @keyframes translateLeft {
      0% {
        transform: translateX(-1px);
        fill: #FF8C00;
        opacity: .1;
      }
      50% {
        transform: translateX(-2px);
        fill: #FF8C00;
        opacity: .5;
      }
      100% {
        transform: translateX(-3px);
        fill: #FF8C00;
      }
    }
    @keyframes translateUp {
      0% {
        transform: translateY(-1px);
        fill: #FF8C00;
        opacity: .1;
      }
      50% {
        transform: translateY(-2px);
        fill: #FF8C00;
        opacity: .5;
      }
      100% {
        transform: translateY(-3px);
        fill: #FF8C00;
      }
    }
    @keyframes translateDown {
      0% {
        transform: translateY(1px);
        fill: #FF8C00;
        opacity: .1;
      }
      50% {
        transform: translateY(2px);
        fill: #FF8C00;
        opacity: .5;
      }
      100% {
        transform: translateY(3px);
        fill: #FF8C00;
      }
    }
    .ray-right{
      animation: translateRight 1s ease-in-out infinite alternate;
    }
    .ray-left {
      animation: translateLeft 1s ease-in-out infinite alternate;
    }
    .ray-up {
      animation: translateUp 1s ease-in-out infinite alternate;
    }
    .ray-down {
      animation: translateDown 1s ease-in-out infinite alternate;
    }
    ]]>
  </style>
<path id="circle" fill="#FF8C00" d="M50,62.9c-1.8,0-3.6-0.4-5.3-1.2c-6.5-2.9-9.4-10.6-6.4-17.1c2.1-4.6,6.7-7.6,11.8-7.6   c1.8,0,3.6,0.4,5.3,1.2c6.5,2.9,9.4,10.6,6.4,17.1C59.7,59.9,55.1,62.9,50,62.9z" />
<path class="ray-right" fill="#000000" d="M72.3,61.1c-0.1,0-0.3,0-0.4-0.1l-5.9-2.7c-0.5-0.2-0.8-0.9-0.5-1.4c0.2-0.5,0.9-0.8,1.4-0.5l5.9,2.7   c0.5,0.2,0.8,0.9,0.5,1.4C73,60.9,72.7,61.1,72.3,61.1z"/>
<path class="ray-left" fill="#000000" d="M33.6,43.6c-0.1,0-0.3,0-0.4-0.1l-5.9-2.7c-0.5-0.2-0.8-0.9-0.5-1.4c0.2-0.5,0.9-0.8,1.4-0.5l5.9,2.7   c0.5,0.2,0.8,0.9,0.5,1.4C34.4,43.4,34,43.6,33.6,43.6z"/>
<path class="ray-up" fill="#000000" d="M57.4,34.7c-0.1,0-0.3,0-0.4-0.1c-0.5-0.2-0.8-0.9-0.5-1.4l2.7-5.9c0.2-0.5,0.9-0.8,1.4-0.5   c0.5,0.2,0.8,0.9,0.5,1.4l-2.7,5.9C58.2,34.4,57.8,34.7,57.4,34.7z"/>
<path class="ray-down" fill="#000000" d="M39.9,73.3c-0.1,0-0.3,0-0.4-0.1C39,73,38.7,72.3,39,71.8l2.7-5.9c0.2-0.5,0.9-0.8,1.4-0.5   c0.5,0.2,0.8,0.9,0.5,1.4l-2.7,5.9C40.7,73.1,40.3,73.3,39.9,73.3z"/>
<path class="ray-right" fill="#000000"
d="M66.8,44.7c-0.4,0-0.8-0.3-1-0.7c-0.2-0.5,0.1-1.1,0.6-1.3l6-2.3c0.5-0.2,1.1,0.1,1.3,0.6   c0.2,0.5-0.1,1.1-0.6,1.3l-6,2.3C67.1,44.7,66.9,44.7,66.8,44.7z"/>
<path class="ray-left" fill="#000000"
d="M27.1,59.7c-0.4,0-0.8-0.3-1-0.7c-0.2-0.5,0.1-1.1,0.6-1.3l6-2.3c0.5-0.2,1.1,0.1,1.3,0.6   c0.2,0.5-0.1,1.1-0.6,1.3l-6,2.3C27.4,59.6,27.3,59.7,27.1,59.7z"/>
<path class="ray-up" fill="#000000" d="M43.7,34.2c-0.4,0-0.8-0.3-1-0.7l-2.3-6c-0.2-0.5,0.1-1.1,0.6-1.3c0.5-0.2,1.1,0.1,1.3,0.6l2.3,6   c0.2,0.5-0.1,1.1-0.6,1.3C43.9,34.2,43.8,34.2,43.7,34.2z"/>
<path class="ray-down" fill="#000000" d="M58.6,73.9c-0.4,0-0.8-0.3-1-0.7l-2.3-6c-0.2-0.5,0.1-1.1,0.6-1.3s1.1,0.1,1.3,0.6l2.3,6   c0.2,0.5-0.1,1.1-0.6,1.3C58.9,73.9,58.7,73.9,58.6,73.9z"/></svg>
