<svg xmlns="http://www.w3.org/2000/svg" xmlns:xlink="http://www.w3.org/1999/xlink" version="1.1" x="0px" y="0px" viewBox="0 0 100 125" enable-background="new 0 0 100 100" xml:space="preserve">
  <style type="text/css">
    <![CDATA[
    @keyframes thunder {
      0% {
        transform: translate(0px, -3px);
      }
      25% {
        transform: translateY(-2px);
      }
      50% {
        transform: translate(1px, -1px);
        fill: blue;
        opacity: .5;
      }
      75% {
        transform: translateY(2px);
        fill: yellow;
      }
      100% {
        transform: translateY(-2px);
      }
    }
    @keyframes rain {
      0% {
        transform: translate(1px, 1px);
      }
      50% {
        transform: translate(-2px, 2px);
      }
      100% {
        transform: translate(3px, -1px);
        opacity: 0;
      }
    }
    .thunder{
      animation: thunder 1s infinite;
    }
    .rain-drop{
      animation: rain 1s infinite;
    }
    .rain-drop-alt{
      animation: rain 1s ease-in-out infinite alternate;
    }
    ]]>
  </style>
<path class="rain-drop-alt" fill="#000000" d="M61.1,71.5c-0.1,0-0.3,0-0.4-0.1c-0.5-0.2-0.8-0.8-0.6-1.4l2.3-5.5c0.2-0.5,0.8-0.8,1.4-0.6   c0.5,0.2,0.8,0.8,0.6,1.4L62,70.8C61.9,71.2,61.5,71.5,61.1,71.5z"/>
<path class="rain-drop" fill="#000000" d="M65,61.9c-0.1,0-0.3,0-0.4-0.1c-0.5-0.2-0.8-0.8-0.6-1.4l2.6-6.2c0.2-0.5,0.8-0.8,1.4-0.6   c0.5,0.2,0.8,0.8,0.6,1.4L66,61.3C65.8,61.7,65.4,61.9,65,61.9z"/>
<path class="rain-drop" fill="#000000" d="M30.2,68.5c-0.1,0-0.3,0-0.4-0.1c-0.5-0.2-0.8-0.8-0.6-1.4l2.4-5.8c0.2-0.5,0.8-0.8,1.4-0.6   c0.5,0.2,0.8,0.8,0.6,1.4l-2.4,5.8C31,68.3,30.6,68.5,30.2,68.5z"/>
<path class="rain-drop-alt" fill="#000000" d="M34.4,58.3c-0.1,0-0.3,0-0.4-0.1c-0.5-0.2-0.8-0.8-0.6-1.4l0.8-1.9c0.2-0.5,0.8-0.8,1.4-0.6   c0.5,0.2,0.8,0.8,0.6,1.4l-0.8,1.9C35.2,58.1,34.9,58.3,34.4,58.3z"/>
<path class="cloud" fill="#000000" d="M65,50.8H35c-5,0-9-4-9-9s4-9,9-9c0.2,0,0.3,0,0.5,0C37,26,43,21.1,50,21.1S63,26,64.5,32.8   c0.2,0,0.4,0,0.5,0c5,0,9,4,9,9S70,50.8,65,50.8z M35,34.8c-3.8,0-6.9,3.1-6.9,6.9s3.1,6.9,6.9,6.9h30c3.8,0,6.9-3.1,6.9-6.9   s-3.1-6.9-6.9-6.9c-0.4,0-0.8,0-1.2,0.1c-0.3,0-0.6,0-0.8-0.2s-0.4-0.4-0.4-0.7c-0.9-6.2-6.3-10.9-12.6-10.9s-11.7,4.7-12.6,10.9   c0,0.3-0.2,0.5-0.4,0.7c-0.2,0.2-0.5,0.2-0.8,0.2C35.7,34.9,35.4,34.8,35,34.8z"/>
<path class="thunder" fill="#000000" d="M46.4,78.1c-0.1,0-0.3,0-0.4-0.1c-0.4-0.2-0.7-0.6-0.6-1.1l1.4-12.5l-4.8-2c-0.3-0.1-0.6-0.4-0.6-0.8   l-1.2-7.7c-0.1-0.6,0.3-1.1,0.9-1.2c0.6-0.1,1.1,0.3,1.2,0.9l1.1,7.1l5,2.1c0.4,0.2,0.7,0.6,0.6,1.1l-1.1,9.5l8.3-11L51.5,58   c-0.3-0.3-0.4-0.7-0.3-1l0.9-3.5c0.1-0.6,0.7-0.9,1.3-0.7c0.6,0.1,0.9,0.7,0.7,1.3l-0.8,2.9l4.9,4.7c0.4,0.4,0.4,1,0.1,1.4   L47.2,77.7C47,78,46.7,78.1,46.4,78.1z"/>
</svg>
