<svg xmlns="http://www.w3.org/2000/svg" xmlns:xlink="http://www.w3.org/1999/xlink" version="1.1" x="0px" y="0px" viewBox="0 0 100 125" enable-background="new 0 0 100 100" xml:space="preserve">
  <style type="text/css">
    <![CDATA[
      @keyframes gust {
        0% {
          transform: translate(-2px, -3px);
          opacity: .5
        }
        50% {
          transform: translate(-4px, 1px);
          opacity: .7
        }
        100% {
          transform: translate(2px, -1px);
          opacity: 1
        }
      }
      #gustOne {
        animation: gust 4s ease-in-out infinite alternate;
        fill: silver;
      }
      #gustTwo {
        animation: gust 2s ease-in-out infinite alternate;
        fill: gray;
      }
      #gustThree {
        animation: gust 3s ease-in-out infinite alternate;
        fill: silver;
      }
      #cloud {
        animation: gust 5s ease-in-out infinite alternate;
        fill: silver;
      }
    ]]>
  </style>
<path id="gustOne" fill="#000000" d="M36.3,46.7H25.2c-0.6,0-1-0.5-1-1s0.5-1,1-1h11.1c0.6,0,1,0.5,1,1S36.9,46.7,36.3,46.7z"/>
<path id="gustTwo" fill="#000000" d="M30.8,55.7H16.2c-0.6,0-1-0.5-1-1s0.5-1,1-1h14.6c0.6,0,1,0.5,1,1S31.3,55.7,30.8,55.7z"/>
<path id="gustThree" fill="#000000" d="M34.9,64.8H22.4c-0.6,0-1-0.5-1-1s0.5-1,1-1h12.5c0.6,0,1,0.5,1,1S35.5,64.8,34.9,64.8z"/>
<path id="cloud" fill="#000000" d="M75.9,64.8h-30c-5,0-9-4-9-9s4-9,9-9c0.2,0,0.3,0,0.5,0c1.5-6.7,7.5-11.7,14.5-11.7s13,4.9,14.5,11.7   c0.2,0,0.4,0,0.5,0c5,0,9,4,9,9S80.8,64.8,75.9,64.8z" />
</svg>
