<svg xmlns="http://www.w3.org/2000/svg" xmlns:xlink="http://www.w3.org/1999/xlink" version="1.1" x="0px" y="0px" viewBox="0 0 100 125" enable-background="new 0 0 100 100" xml:space="preserve"><g><path fill="#000000" d="M36.3,46.7H25.2c-0.6,0-1-0.5-1-1s0.5-1,1-1h11.1c0.6,0,1,0.5,1,1S36.9,46.7,36.3,46.7z"/></g><g><path fill="#000000" d="M30.8,55.7H16.2c-0.6,0-1-0.5-1-1s0.5-1,1-1h14.6c0.6,0,1,0.5,1,1S31.3,55.7,30.8,55.7z"/></g><g><path fill="#000000" d="M34.9,64.8H22.4c-0.6,0-1-0.5-1-1s0.5-1,1-1h12.5c0.6,0,1,0.5,1,1S35.5,64.8,34.9,64.8z"/></g><g><path fill="#000000" d="M75.9,64.8h-30c-5,0-9-4-9-9s4-9,9-9c0.2,0,0.3,0,0.5,0c1.5-6.7,7.5-11.7,14.5-11.7s13,4.9,14.5,11.7   c0.2,0,0.4,0,0.5,0c5,0,9,4,9,9S80.8,64.8,75.9,64.8z M45.8,48.9c-3.8,0-6.9,3.1-6.9,6.9s3.1,6.9,6.9,6.9h30c3.8,0,6.9-3.1,6.9-6.9   s-3.1-6.9-6.9-6.9c-0.4,0-0.8,0-1.2,0.1c-0.3,0-0.6,0-0.8-0.2c-0.2-0.2-0.4-0.4-0.4-0.7c-0.9-6.2-6.3-10.9-12.6-10.9   c-6.3,0-11.7,4.7-12.6,10.9c0,0.3-0.2,0.5-0.4,0.7C47.6,49,47.3,49.1,47,49C46.6,48.9,46.2,48.9,45.8,48.9z"/></g></svg>
